<?xml version="1.0" encoding="UTF-8" standalone="no"?>
<!DOCTYPE svg PUBLIC "-//W3C//DTD SVG 1.1//EN" "http://www.w3.org/Graphics/SVG/1.1/DTD/svg11.dtd">
<svg width="100%" height="100%" viewBox="0 0 2389 3027" version="1.1" xmlns="http://www.w3.org/2000/svg" xmlns:xlink="http://www.w3.org/1999/xlink" xml:space="preserve" xmlns:serif="http://www.serif.com/" style="fill-rule:evenodd;clip-rule:evenodd;stroke-linecap:round;stroke-linejoin:round;stroke-miterlimit:1.5;">
    <g transform="matrix(1,0,0,1,-7322.49,-1229.88)">
        <g transform="matrix(2.05269,0,0,1.46346,611.59,1190.93)">
            <g transform="matrix(0.487165,0,0,1,2081.7,-238.081)">
                <g id="Coffee" transform="matrix(1,-6.93889e-18,2.77556e-17,0.683314,1147.8,1641.98)">
                    <g transform="matrix(1,0,0,1,-329.091,-739.244)">
                        <path d="M2000.72,1682.55C1950.74,1751.32 1887.38,1749.56 1887.38,1749.56C1803.82,1750.11 1887.35,1748.74 1794.03,1749.13C1651.81,1745.3 1620.55,1525.18 1619.1,1522.68L1619.97,1522.67C1619.96,1522.39 1619.95,1522.11 1619.95,1521.82C1619.95,1475.73 1717.5,1438.3 1837.64,1438.3C1957.72,1438.3 2055.22,1475.68 2055.33,1521.73L2055.55,1521.73C2055.44,1522.61 2055.34,1523.49 2055.23,1524.35C2055.15,1525.38 2055.03,1526.41 2054.85,1527.44C2053.2,1540.27 2050.37,1557.3 2050.37,1557.3C2050.37,1557.3 2090.6,1561.84 2089.55,1598.33C2087.92,1654.6 2064.5,1670.59 2048.74,1676.85C2037.26,1681.67 2021.22,1683.55 2000.72,1682.55ZM2018.48,1653.7C2028.39,1634.68 2043.67,1586.76 2043.67,1586.76C2051.87,1590.25 2064.06,1592.54 2057,1624.38C2050.52,1653.59 2022.98,1653.85 2018.48,1653.7Z" style="fill:rgb(254,254,252);"/>
                    </g>
                    <g transform="matrix(1.04878,0,0,0.801277,-425.108,-342.812)">
                        <ellipse cx="1843.73" cy="1404.5" rx="207.564" ry="104.233" style="fill:rgb(240,240,240);"/>
                    </g>
                    <g transform="matrix(0.980268,0,0,0.702344,-300.869,-204.816)">
                        <ellipse cx="1843.73" cy="1404.5" rx="207.564" ry="104.233" style="fill:url(#_Radial1);"/>
                    </g>
                </g>
                <g transform="matrix(0.913008,0.278753,-0.407943,0.623871,-31.0031,825.622)">
                    <g>
                        <g transform="matrix(1,0,0,1,1437.23,-826.206)">
                            <path d="M2253.88,1010.88C2247.73,1013.45 2241.56,1016.02 2235.68,1019.16C2220.68,1027.16 2204.56,1038.48 2192.05,1049.64C2165.63,1073.23 2143.8,1100.93 2126.79,1131.95C2117.94,1148.1 2110.35,1164.75 2103.94,1182.03C2098.56,1196.54 2094.91,1211.68 2089.13,1226.05C2080.55,1247.37 2066.75,1265.83 2049.12,1280.57C1995.6,1325.3 1918.64,1326.46 1865.47,1371.26C1840.84,1392.02 1827.21,1420.31 1823.22,1451.79C1822.5,1457.43 1821.81,1463.1 1821.83,1468.78C1821.87,1481.84 1832.7,1517.11 1823.4,1507.93C1774.28,1459.41 1648.36,1349.33 1618.57,1276.08C1578.84,1178.39 1629.3,1081.79 1600.3,966.664C1582.48,895.916 1459.52,803.21 1390.79,706.252C1324.04,612.078 1295.57,462.804 1320.17,386.087C1416.08,86.946 1461.81,162.948 1500.84,-1.374C1509.93,-39.622 1498.14,-74.758 1485,-111.123C1467.54,-159.466 1457.34,-188.979 1408.03,-243.506C1338.9,-319.938 1028.62,-407.443 937.654,-480.551C805.382,-586.859 767.409,-711.576 757.057,-806.744C710.273,-1236.85 1357.87,-1222.57 1490.99,-1272.07C2206.15,-1538.02 2913.99,-1311.08 3030.8,-1079.77C3258.04,-629.805 2706.27,-709.502 2663.01,-331.753C2652.92,-243.627 2827.28,-113.055 2808.07,120.083C2797.64,246.584 2575.29,358.787 2535.84,593.908C2527.39,644.286 2511.65,693.25 2497.45,742.3C2471.88,830.643 2433.8,915.475 2353.86,967.175C2323.13,987.051 2289.06,1001.11 2253.88,1010.88Z" style="fill:url(#_Linear2);"/>
                        </g>
                        <g transform="matrix(1,0,0,1,-297.945,-813.781)">
                            <ellipse cx="3897.98" cy="1129.4" rx="5.621" ry="7.453" style="fill:rgb(36,108,96);"/>
                        </g>
                        <g transform="matrix(1,0,0,1,-297.945,-813.781)">
                            <ellipse cx="3962.73" cy="1058.94" rx="9.974" ry="8.842" style="fill:rgb(36,108,96);"/>
                        </g>
                        <g transform="matrix(1,0,0,1,-297.945,-813.781)">
                            <ellipse cx="3960.17" cy="1110" rx="8.024" ry="7.005" style="fill:rgb(36,108,96);"/>
                        </g>
                        <g transform="matrix(1,0,0,1,-297.945,-813.781)">
                            <ellipse cx="4010.51" cy="1025.76" rx="6.111" ry="4.12" style="fill:rgb(36,108,96);"/>
                        </g>
                        <g transform="matrix(1,0,0,1,-297.945,-813.781)">
                            <ellipse cx="4032.38" cy="1068.96" rx="12.932" ry="13.54" style="fill:rgb(36,108,96);"/>
                        </g>
                        <g transform="matrix(1,0,0,1,-297.945,-813.781)">
                            <ellipse cx="4113.47" cy="660.589" rx="5.813" ry="8.751" style="fill:white;"/>
                        </g>
                        <g transform="matrix(0.827864,0,0,1.26411,409.09,-1005.96)">
                            <ellipse cx="4119.68" cy="735.011" rx="12.267" ry="7.374" style="fill:white;"/>
                        </g>
                        <g transform="matrix(1,0,0,1,-297.945,-813.781)">
                            <ellipse cx="4072.36" cy="784.929" rx="8.803" ry="12.396" style="fill:white;"/>
                        </g>
                        <g transform="matrix(1,0,0,1,-297.945,-813.781)">
                            <ellipse cx="4113.51" cy="840.934" rx="5.8" ry="5.022" style="fill:white;"/>
                        </g>
                    </g>
                    <g transform="matrix(1,0,0,1,-297.945,-813.781)">
                        <ellipse cx="3301.38" cy="1030.27" rx="9.813" ry="9.53" style="fill:rgb(36,108,96);"/>
                    </g>
                    <g transform="matrix(1,0,0,1,-297.945,-813.781)">
                        <ellipse cx="3260.36" cy="1029.67" rx="4.905" ry="4.961" style="fill:rgb(36,108,96);"/>
                    </g>
                    <g transform="matrix(1,0,0,1,-303.045,-809.553)">
                        <ellipse cx="3310.38" cy="979.636" rx="6.69" ry="5.855" style="fill:rgb(36,108,96);"/>
                    </g>
                    <g transform="matrix(1,0,0,1,-328.883,-880.427)">
                        <ellipse cx="3287.89" cy="1211.15" rx="10.303" ry="10.303" style="fill:rgb(36,108,96);"/>
                    </g>
                    <g transform="matrix(1,0,0,1,-470.391,-1252.06)">
                        <ellipse cx="3305.55" cy="1271.33" rx="15.074" ry="12.226" style="fill:rgb(36,108,96);"/>
                    </g>
                    <g transform="matrix(1,0,0,1,-307.075,-809.702)">
                        <ellipse cx="3367.65" cy="1303.64" rx="7.689" ry="6.035" style="fill:rgb(36,108,96);"/>
                    </g>
                    <g transform="matrix(1,0,0,1,-254.134,-765.827)">
                        <ellipse cx="3341.09" cy="1329.89" rx="5.736" ry="6.25" style="fill:rgb(36,108,96);"/>
                    </g>
                    <g transform="matrix(1,0,0,1,-317.281,-876.186)">
                        <ellipse cx="3337.63" cy="1191.93" rx="7.769" ry="7.498" style="fill:rgb(36,108,96);"/>
                    </g>
                    <g transform="matrix(1,0,0,1,-297.945,-813.781)">
                        <ellipse cx="3239.13" cy="901.98" rx="6.165" ry="6.764" style="fill:rgb(36,108,96);"/>
                    </g>
                    <g transform="matrix(1,0,0,1,-199.836,-1269.57)">
                        <ellipse cx="3060.19" cy="407.406" rx="8.691" ry="9.682" style="fill:rgb(36,108,96);"/>
                    </g>
                    <g transform="matrix(1,0,0,1,-197.764,-1197.51)">
                        <ellipse cx="3022.61" cy="457.712" rx="13.606" ry="14.053" style="fill:rgb(36,108,96);"/>
                    </g>
                    <g transform="matrix(1,0,0,1,-533.026,-1188.78)">
                        <ellipse cx="3301.38" cy="1030.27" rx="9.813" ry="9.53" style="fill:white;"/>
                    </g>
                    <g transform="matrix(1.01149,-5.55112e-17,0,1,-438.345,-1138.27)">
                        <ellipse cx="3260.36" cy="1029.67" rx="4.905" ry="4.961" style="fill:white;"/>
                    </g>
                    <g transform="matrix(1,0,0,1,-406.031,-1134.04)">
                        <ellipse cx="3310.38" cy="979.636" rx="6.69" ry="5.855" style="fill:white;"/>
                    </g>
                </g>
                <g transform="matrix(0.876711,0.264774,-0.404252,0.624992,1847.9,648.732)">
                    <path d="M2060.43,1058.92C1972.4,1097.41 1832.81,1118.89 1768.1,1193.35C1695.14,1277.3 1667.29,1410.91 1672.57,1438.18C1576.14,1300.57 1619.69,1099.56 1622.79,1072.07C1640.05,918.9 1510.09,916.107 1487.85,830.514C1480.6,802.593 1480.26,699.426 1450.91,654.919C1421.56,610.411 1360.51,460.286 1612.58,342.864C1850.93,231.827 1893.67,370.597 2001.81,386.347C2109.96,402.096 2479.14,421.681 2303.81,605.539C2141.47,775.784 2292.45,957.466 2060.43,1058.92Z" style="fill:white;"/>
                </g>
                <g transform="matrix(0.914648,0.276231,-0.404252,0.624992,740.643,31.2187)">
                    <ellipse cx="3258.21" cy="987.105" rx="12.256" ry="9.531" style="fill:rgb(36,108,96);"/>
                </g>
                <g transform="matrix(0.914648,0.276231,-0.404252,0.624992,740.643,31.2187)">
                    <ellipse cx="3301.38" cy="1030.27" rx="9.813" ry="9.53" style="fill:rgb(36,108,96);"/>
                </g>
                <g transform="matrix(0.914648,0.276231,-0.404252,0.624992,740.643,31.2187)">
                    <ellipse cx="3260.36" cy="1029.67" rx="4.905" ry="4.961" style="fill:rgb(36,108,96);"/>
                </g>
                <g transform="matrix(0.914648,0.276231,-0.404252,0.624992,734.269,32.4523)">
                    <ellipse cx="3310.38" cy="979.636" rx="6.69" ry="5.855" style="fill:rgb(36,108,96);"/>
                </g>
                <g transform="matrix(-0.914648,-0.276231,-0.404252,0.624992,6698.67,2489.94)">
                    <path d="M3935.11,573.468C3935.11,573.468 3670.7,306.705 3486.01,311.96" style="fill:none;stroke:rgb(73,166,144);stroke-width:2px;"/>
                </g>
                <g transform="matrix(0.914648,0.276231,-0.404252,0.624992,717.686,69.9609)">
                    <ellipse cx="3334.04" cy="1020.16" rx="7.667" ry="7.47" style="fill:rgb(36,108,96);"/>
                </g>
                <g transform="matrix(0.914648,0.276231,-0.404252,0.624992,748.265,0.541277)">
                    <ellipse cx="3337.63" cy="1191.93" rx="7.769" ry="7.498" style="fill:rgb(36,108,96);"/>
                </g>
                <g transform="matrix(0.980743,0.133452,-0.1953,0.670156,1614.8,778.117)">
                    <path d="M1618.83,476.096C1622.3,476.711 1623.84,481.094 1625.96,483.911C1641.93,505.109 1639.96,506.389 1656.62,527.03C1682.04,558.512 1720.93,598.427 1766.13,582.615C1771.98,580.569 1777.61,577.805 1782.82,574.449C1788.94,570.501 1794.54,565.555 1799.8,560.515C1799.73,559.355 1799.66,558.182 1799.39,557.052C1798.64,553.963 1798.01,550.808 1796.76,547.888C1794.82,543.372 1792.72,538.853 1789.86,534.861C1780.59,521.953 1768.76,512.159 1754.95,504.567C1714.08,482.099 1664.6,477.117 1618.83,476.096" style="fill:rgb(38,107,96);"/>
                </g>
                <g transform="matrix(1,-6.93889e-18,2.77556e-17,0.683314,-477.264,1585.64)">
                    <g id="phone" transform="matrix(1.27776,6.84865e-17,2.41918e-17,1.1284,-946.736,43.1647)">
                        <g id="phone1" serif:id="phone">
                            <g transform="matrix(0.268576,0,0,0.268576,3049.9,-12.3526)">
                                <path d="M1459.54,1357.64L1028.56,1357.64C986.166,1357.64 951.481,1322.95 951.481,1280.56L951.481,333.247C951.481,290.854 986.166,256.17 1028.56,256.17L1459.54,256.17C1501.93,256.17 1536.61,290.854 1536.61,333.247L1536.61,1280.56C1536.61,1322.95 1501.93,1357.64 1459.54,1357.64Z" style="fill:rgb(25,33,56);fill-rule:nonzero;"/>
                            </g>
                            <g transform="matrix(0.268576,0,0,0.268576,3049.9,-12.3526)">
                                <path d="M1507.61,340.542L1507.61,1265.9C1507.61,1297.29 1482.11,1322.97 1450.96,1322.97L1037.13,1322.97C1005.98,1322.97 980.487,1297.29 980.487,1265.9L980.487,340.542C980.487,309.149 1005.98,283.471 1037.13,283.471L1450.96,283.471C1482.11,283.471 1507.61,309.149 1507.61,340.542Z" style="fill:rgb(217,226,237);fill-rule:nonzero;"/>
                            </g>
                            <g transform="matrix(0.268576,0,0,0.268576,3049.9,-12.6212)">
                                <path d="M1330.53,317.884L1157.57,317.884C1143.48,317.884 1131.96,306.356 1131.96,292.268L1131.96,288.241C1131.96,274.152 1143.48,262.625 1157.57,262.625L1330.53,262.625C1344.62,262.625 1356.14,274.152 1356.14,288.241L1356.14,292.268C1356.14,306.356 1344.62,317.884 1330.53,317.884Z" style="fill:rgb(25,33,56);fill-rule:nonzero;"/>
                            </g>
                            <g transform="matrix(0.269092,0,0,0.268576,3045.94,-7.83265)">
                                <g transform="matrix(1.35038,0,0,3.00729,354.624,-398.68)">
                                    <rect x="494.101" y="438.451" width="154.873" height="95.805" style="fill:rgb(244,244,246);fill-rule:nonzero;"/>
                                </g>
                                <g transform="matrix(1.35038,0,0,3.00729,614.585,-398.68)">
                                    <rect x="494.101" y="438.451" width="154.873" height="95.805" style="fill:rgb(244,244,246);fill-rule:nonzero;"/>
                                </g>
                            </g>
                            <g transform="matrix(0.377297,0,0,0.373751,3134.48,-9.85406)">
                                <rect x="494.101" y="604.728" width="334.566" height="25.333" style="fill:rgb(244,244,246);fill-rule:nonzero;"/>
                            </g>
                            <g transform="matrix(0.706514,0,0,0.417416,3113.66,-93.1968)">
                                <g>
                                    <path d="M472,683.548L293.333,683.548L293.333,438.451L472,438.451L472,683.548Z" style="fill:rgb(244,244,246);fill-rule:nonzero;"/>
                                </g>
                            </g>
                        </g>
                        <g transform="matrix(0.377297,0,0,0.516771,3134.48,-81.9825)">
                            <path d="M828.667,581.838L494.101,581.838L494.101,556.504L828.667,556.504L828.667,581.838Z" style="fill:rgb(244,244,246);fill-rule:nonzero;"/>
                        </g>
                    </g>
                    <g transform="matrix(0.784623,0,0,0.858211,3076.56,-276.825)">
                        <path d="M452,600.291L356.622,600.238L404.289,541.579L452,600.291Z" style="fill:rgb(184,211,208);fill-rule:nonzero;"/>
                    </g>
                    <g transform="matrix(0.784623,0,0,0.858211,3076.56,-276.825)">
                        <path d="M313.333,600.228L369.561,531.036L425.838,600.291L313.333,600.228Z" style="fill:rgb(36,108,96);fill-rule:nonzero;"/>
                    </g>
                    <g transform="matrix(0.784623,0,0,0.858211,3076.56,-276.825)">
                        <path d="M381.313,531.038C381.313,525.886 385.49,521.708 390.643,521.708C395.796,521.708 399.973,525.886 399.973,531.038C399.973,536.191 395.796,540.368 390.643,540.368C385.49,540.368 381.313,536.191 381.313,531.038Z" style="fill:rgb(230,53,37);fill-rule:nonzero;"/>
                    </g>
                </g>
                <g transform="matrix(0.804622,0.405743,0.593787,-0.54981,1333.97,1000.16)">
                    <path d="M1618.83,476.096C1622.3,476.711 1623.84,481.094 1625.96,483.911C1641.93,505.109 1639.96,506.389 1656.62,527.03C1682.04,558.512 1720.93,598.427 1766.13,582.615C1771.98,580.569 1777.61,577.805 1782.82,574.449C1788.94,570.501 1794.54,565.555 1799.8,560.515C1799.73,559.355 1799.66,558.182 1799.39,557.052C1798.64,553.963 1798.01,550.808 1796.76,547.888C1794.82,543.372 1792.72,538.853 1789.86,534.861C1780.59,521.953 1768.76,512.159 1754.95,504.567C1714.08,482.099 1664.6,477.117 1618.83,476.096" style="fill:rgb(38,107,96);"/>
                </g>
                <g transform="matrix(0.541049,-0.574661,-0.840991,-0.369707,2484.96,2792.72)">
                    <path d="M1618.83,476.096C1622.3,476.711 1623.84,481.094 1625.96,483.911C1641.93,505.109 1639.96,506.389 1656.62,527.03C1682.04,558.512 1720.93,598.427 1766.13,582.615C1771.98,580.569 1777.61,577.805 1782.82,574.449C1788.94,570.501 1794.54,565.555 1799.8,560.515C1799.73,559.355 1799.66,558.182 1799.39,557.052C1798.64,553.963 1798.01,550.808 1796.76,547.888C1794.82,543.372 1792.72,538.853 1789.86,534.861C1780.59,521.953 1768.76,512.159 1754.95,504.567C1714.08,482.099 1664.6,477.117 1618.83,476.096" style="fill:rgb(38,107,96);"/>
                </g>
                <g transform="matrix(-0.256052,0.660535,0.966663,0.174964,3303.45,220.029)">
                    <path d="M1618.83,476.096C1622.3,476.711 1623.84,481.094 1625.96,483.911C1641.93,505.109 1639.96,506.389 1656.62,527.03C1682.04,558.512 1720.93,598.427 1766.13,582.615C1771.98,580.569 1777.61,577.805 1782.82,574.449C1788.94,570.501 1794.54,565.555 1799.8,560.515C1799.73,559.355 1799.66,558.182 1799.39,557.052C1798.64,553.963 1798.01,550.808 1796.76,547.888C1794.82,543.372 1792.72,538.853 1789.86,534.861C1780.59,521.953 1768.76,512.159 1754.95,504.567C1714.08,482.099 1664.6,477.117 1618.83,476.096" style="fill:rgb(38,107,96);"/>
                </g>
                <g transform="matrix(-0.996946,0.0533633,-0.0780947,-0.681228,5108.87,1988.73)">
                    <path d="M1618.83,476.096C1622.3,476.711 1623.84,481.094 1625.96,483.911C1641.93,505.109 1639.96,506.389 1656.62,527.03C1682.04,558.512 1720.93,598.427 1766.13,582.615C1771.98,580.569 1777.61,577.805 1782.82,574.449C1788.94,570.501 1794.54,565.555 1799.8,560.515C1799.73,559.355 1799.66,558.182 1799.39,557.052C1798.64,553.963 1798.01,550.808 1796.76,547.888C1794.82,543.372 1792.72,538.853 1789.86,534.861C1780.59,521.953 1768.76,512.159 1754.95,504.567C1714.08,482.099 1664.6,477.117 1618.83,476.096" style="fill:rgb(38,107,96);"/>
                </g>
                <g transform="matrix(-0.804622,-0.405743,-0.593787,0.54981,4837.48,2142.56)">
                    <path d="M1618.83,476.096C1622.3,476.711 1623.84,481.094 1625.96,483.911C1641.93,505.109 1639.96,506.389 1656.62,527.03C1682.04,558.512 1720.93,598.427 1766.13,582.615C1771.98,580.569 1777.61,577.805 1782.82,574.449C1788.94,570.501 1794.54,565.555 1799.8,560.515C1799.73,559.355 1799.66,558.182 1799.39,557.052C1798.64,553.963 1798.01,550.808 1796.76,547.888C1794.82,543.372 1792.72,538.853 1789.86,534.861C1780.59,521.953 1768.76,512.159 1754.95,504.567C1714.08,482.099 1664.6,477.117 1618.83,476.096" style="fill:rgb(38,107,96);"/>
                </g>
                <g transform="matrix(-0.914648,-0.276231,-0.404252,0.624992,6701.36,2507.64)">
                    <path d="M3804.6,427.239C3804.6,427.239 3771.74,338.619 3730.56,310.638" style="fill:none;stroke:rgb(73,166,144);stroke-width:2px;"/>
                </g>
                <g transform="matrix(0.914648,0.276231,-0.404252,0.624992,76.616,186.529)">
                    <path d="M3961.4,548.003C3961.4,548.003 3555.1,338.538 3362.45,461.995" style="fill:none;stroke:rgb(73,166,144);stroke-width:2px;"/>
                </g>
                <g transform="matrix(0.914648,0.276231,-0.404252,0.624992,77.4245,185.279)">
                    <path d="M3758.53,469.15C3643.84,422.551 3374.43,487.365 3500.68,799.362" style="fill:none;stroke:rgb(73,166,144);stroke-width:2px;"/>
                </g>
                <g transform="matrix(0.980743,0.133452,-0.1953,0.670156,1616.11,778.515)">
                    <path d="M1618.83,476.096C1622.3,476.711 1623.84,481.094 1625.96,483.911C1641.93,505.109 1639.96,506.389 1656.62,527.03C1682.04,558.512 1720.93,598.427 1766.13,582.615C1771.98,580.569 1777.61,577.805 1782.82,574.449C1788.94,570.501 1794.54,565.555 1799.8,560.515C1799.73,559.355 1799.66,558.182 1799.39,557.052C1798.64,553.963 1798.01,550.808 1796.76,547.888C1794.82,543.372 1792.72,538.853 1789.86,534.861C1780.59,521.953 1768.76,512.159 1754.95,504.567C1714.08,482.099 1664.6,477.117 1618.83,476.096" style="fill:rgb(38,107,96);"/>
                </g>
                <g transform="matrix(0.980743,0.133452,-0.1953,0.670156,1726.39,882.608)">
                    <path d="M1618.83,476.096C1622.3,476.711 1623.84,481.094 1625.96,483.911C1641.93,505.109 1639.96,506.389 1656.62,527.03C1682.04,558.512 1720.93,598.427 1766.13,582.615C1771.98,580.569 1777.61,577.805 1782.82,574.449C1788.94,570.501 1794.54,565.555 1799.8,560.515C1799.73,559.355 1799.66,558.182 1799.39,557.052C1798.64,553.963 1798.01,550.808 1796.76,547.888C1794.82,543.372 1792.72,538.853 1789.86,534.861C1780.59,521.953 1768.76,512.159 1754.95,504.567C1714.08,482.099 1664.6,477.117 1618.83,476.096" style="fill:rgb(38,107,96);"/>
                </g>
                <g transform="matrix(0.914648,0.276231,-0.404252,0.624992,97.5767,175.974)">
                    <path d="M4018.15,631.397C4018.15,631.397 3670.7,306.705 3486.01,311.96" style="fill:none;stroke:rgb(73,166,144);stroke-width:2px;"/>
                </g>
                <g transform="matrix(0.914648,0.276231,-0.404252,0.624992,76.616,186.529)">
                    <path d="M3804.6,427.239C3804.6,427.239 3771.74,338.619 3730.56,310.638" style="fill:none;stroke:rgb(73,166,144);stroke-width:2px;"/>
                </g>
                <g transform="matrix(0.914648,0.276231,-0.404252,0.624992,292.438,-201.567)">
                    <ellipse cx="3962.73" cy="1058.94" rx="9.974" ry="8.842" style="fill:rgb(36,108,96);"/>
                </g>
                <g transform="matrix(0.914648,0.276231,-0.404252,0.624992,292.438,-201.567)">
                    <ellipse cx="3960.17" cy="1110" rx="8.024" ry="7.005" style="fill:rgb(36,108,96);"/>
                </g>
                <g transform="matrix(0.914648,0.276231,-0.404252,0.624992,292.438,-201.567)">
                    <ellipse cx="4032.38" cy="1068.96" rx="12.932" ry="13.54" style="fill:rgb(36,108,96);"/>
                </g>
                <g id="laptop" transform="matrix(0.925474,-6.93889e-18,4.16334e-17,0.691699,296.823,1549.83)">
                    <g transform="matrix(0.847807,0,0,0.847807,2831.65,-649.432)">
                        <path d="M849.434,757.776L272.566,757.776C256.351,757.776 243.207,744.632 243.207,728.418L243.207,350.452C243.207,334.239 256.351,321.095 272.566,321.095L849.434,321.095C865.649,321.095 878.793,334.239 878.793,350.452L878.793,728.418C878.793,744.632 865.649,757.776 849.434,757.776Z" style="fill:rgb(25,33,56);fill-rule:nonzero;"/>
                    </g>
                    <g transform="matrix(0.847807,0,0,0.847807,2831.65,-649.432)">
                        <rect x="271.233" y="357.708" width="579.534" height="363.454" style="fill:rgb(217,226,237);fill-rule:nonzero;"/>
                    </g>
                    <g transform="matrix(0.847807,0,0,0.847807,2831.65,-649.432)">
                        <path d="M553.073,339.225C553.073,334.847 556.622,331.298 561,331.298C565.378,331.298 568.927,334.847 568.927,339.225C568.927,343.603 565.378,347.152 561,347.152C556.622,347.152 553.073,343.603 553.073,339.225Z" style="fill:rgb(244,244,246);fill-rule:nonzero;"/>
                    </g>
                    <g transform="matrix(0.847807,0,0,0.847807,2831.65,-649.432)">
                        <path d="M900.325,800.906L221.675,800.906C206.942,800.906 195,788.962 195,774.231L195,757.777L927,757.777L927,774.231C927,788.962 915.058,800.906 900.325,800.906Z" style="fill:rgb(26,32,54);fill-rule:nonzero;"/>
                    </g>
                    <g transform="matrix(0.847807,0,0,0.847807,2831.65,-649.432)">
                        <path d="M609.476,769.557L512.524,769.557C509.571,769.557 507.178,767.163 507.178,764.211L507.178,757.777L614.822,757.777L614.822,764.211C614.822,767.163 612.429,769.557 609.476,769.557Z" style="fill:rgb(244,244,246);fill-rule:nonzero;"/>
                    </g>
                    <g transform="matrix(0.847807,0,0,0.847807,2831.65,-649.432)">
                        <rect x="271.233" y="357.708" width="579.534" height="37.392" style="fill:rgb(198,46,40);fill-rule:nonzero;"/>
                    </g>
                    <g transform="matrix(0.847807,0,0,0.847807,2831.65,-649.432)">
                        <rect x="494.101" y="438.451" width="154.873" height="95.805" style="fill:rgb(244,244,246);fill-rule:nonzero;"/>
                    </g>
                    <g transform="matrix(0.847807,0,0,0.847807,2831.65,-649.432)">
                        <rect x="673.794" y="438.451" width="154.873" height="95.805" style="fill:rgb(244,244,246);fill-rule:nonzero;"/>
                    </g>
                    <g transform="matrix(0.847807,0,0,0.847807,2831.65,-649.432)">
                        <rect x="293.333" y="438.451" width="178.667" height="245.097" style="fill:rgb(244,244,246);fill-rule:nonzero;"/>
                    </g>
                    <g transform="matrix(0.847807,0,0,0.847807,2831.65,-649.432)">
                        <rect x="494.101" y="556.504" width="334.566" height="25.334" style="fill:rgb(244,244,246);fill-rule:nonzero;"/>
                    </g>
                    <g transform="matrix(0.847807,0,0,0.847807,2831.65,-649.432)">
                        <rect x="494.101" y="604.728" width="334.566" height="25.333" style="fill:rgb(244,244,246);fill-rule:nonzero;"/>
                    </g>
                    <g transform="matrix(0.847807,0,0,0.847807,2831.65,-649.432)">
                        <path d="M452,600.291L356.622,600.238L404.289,541.579L452,600.291Z" style="fill:rgb(184,211,208);fill-rule:nonzero;"/>
                    </g>
                    <g transform="matrix(0.847807,0,0,0.847807,2831.65,-649.432)">
                        <path d="M313.333,600.228L369.561,531.036L425.838,600.291L313.333,600.228Z" style="fill:rgb(36,108,96);fill-rule:nonzero;"/>
                    </g>
                    <g transform="matrix(0.847807,0,0,0.847807,2831.65,-649.432)">
                        <path d="M381.313,531.038C381.313,525.886 385.49,521.708 390.643,521.708C395.796,521.708 399.973,525.886 399.973,531.038C399.973,536.191 395.796,540.368 390.643,540.368C385.49,540.368 381.313,536.191 381.313,531.038Z" style="fill:rgb(230,53,37);fill-rule:nonzero;"/>
                    </g>
                </g>
                <g transform="matrix(0.913008,0.278753,-0.407943,0.623871,370.05,-423.307)">
                    <ellipse cx="3258.21" cy="987.105" rx="12.256" ry="9.531" style="fill:white;"/>
                </g>
                <g transform="matrix(0.913008,0.278753,-0.407943,0.623871,370.05,-382.309)">
                    <ellipse cx="3301.38" cy="1030.27" rx="9.813" ry="9.53" style="fill:white;"/>
                </g>
                <g transform="matrix(0.913008,0.278753,-0.407943,0.623871,370.05,-423.307)">
                    <ellipse cx="3260.36" cy="1029.67" rx="4.905" ry="4.961" style="fill:white;"/>
                </g>
                <g transform="matrix(0.913008,0.278753,-0.407943,0.623871,363.669,-422.091)">
                    <ellipse cx="3310.38" cy="979.636" rx="6.69" ry="5.855" style="fill:white;"/>
                </g>
                <g transform="matrix(0.913008,0.278753,-0.407943,0.623871,331.704,-192.16)">
                    <ellipse cx="3172.06" cy="531.983" rx="5.855" ry="4.671" style="fill:white;"/>
                </g>
                <g transform="matrix(-1,1.11022e-16,-1.66533e-16,-0.683314,6384.21,1526.76)">
                    <ellipse cx="3211.22" cy="776.028" rx="15.348" ry="13.736" style="fill:white;"/>
                </g>
                <g transform="matrix(0.913008,0.278753,-0.407943,0.623871,28.9467,234.874)">
                    <ellipse cx="3897.98" cy="1129.4" rx="5.621" ry="7.453" style="fill:rgb(36,108,96);"/>
                </g>
                <g transform="matrix(0.913008,0.278753,-0.407943,0.623871,28.9467,234.874)">
                    <ellipse cx="3962.73" cy="1058.94" rx="9.974" ry="8.842" style="fill:rgb(36,108,96);"/>
                </g>
                <g transform="matrix(0.913008,0.278753,-0.407943,0.623871,28.9467,234.874)">
                    <ellipse cx="3960.17" cy="1110" rx="8.024" ry="7.005" style="fill:rgb(36,108,96);"/>
                </g>
                <g transform="matrix(0.913008,0.278753,-0.407943,0.623871,28.9467,234.874)">
                    <ellipse cx="4010.51" cy="1025.76" rx="6.111" ry="4.12" style="fill:rgb(36,108,96);"/>
                </g>
                <g transform="matrix(0.338963,0,0,0.231618,1942.98,1271.07)">
                    <circle cx="2568.11" cy="3903.7" r="9.981" style="fill:white;"/>
                </g>
                <g transform="matrix(1,0,0,0.683314,238.767,-496.724)">
                    <ellipse cx="2554.35" cy="3934.54" rx="4.342" ry="2.713" style="fill:white;"/>
                </g>
                <g transform="matrix(1,0,0,0.683314,238.767,-496.724)">
                    <ellipse cx="2584.91" cy="3932.84" rx="1.148" ry="1.751" style="fill:white;"/>
                </g>
                <g transform="matrix(1,0,0,0.683314,238.767,-496.724)">
                    <ellipse cx="2593.96" cy="3923.23" rx="1.519" ry="0.763" style="fill:white;"/>
                </g>
                <g transform="matrix(1,0,0,0.683314,238.767,-496.724)">
                    <ellipse cx="2575.14" cy="3925.37" rx="1.577" ry="1.605" style="fill:white;"/>
                </g>
                <g transform="matrix(1,0,0,0.683314,235.767,-501.507)">
                    <ellipse cx="2570.82" cy="3952.65" rx="2.12" ry="1.111" style="fill:white;"/>
                </g>
                <g transform="matrix(1,0,0,0.683314,238.767,-496.724)">
                    <ellipse cx="2545.32" cy="3958.12" rx="1.945" ry="0.785" style="fill:white;"/>
                </g>
                <g transform="matrix(1,0,0,0.683314,238.767,-496.724)">
                    <ellipse cx="2578.99" cy="3876.45" rx="1.274" ry="1.108" style="fill:white;"/>
                </g>
                <g transform="matrix(1,0,0,0.683314,238.767,-496.724)">
                    <ellipse cx="2843.06" cy="2391.98" rx="9.667" ry="6.495" style="fill:white;"/>
                </g>
                <g transform="matrix(0.995092,0,0,1.01757,256.357,-1477.79)">
                    <ellipse cx="3590.76" cy="2939.43" rx="7.251" ry="4.337" style="fill:white;"/>
                </g>
                <g transform="matrix(1,0,0,0.683314,238.767,-496.724)">
                    <ellipse cx="2515.43" cy="2130.42" rx="11.155" ry="12.683" style="fill:white;"/>
                </g>
                <g transform="matrix(1,0,0,0.683314,238.767,-496.724)">
                    <ellipse cx="2539.44" cy="2319.88" rx="4.175" ry="1.114" style="fill:white;"/>
                </g>
                <g transform="matrix(1,0,0,0.683314,238.767,-462.558)">
                    <ellipse cx="3611.54" cy="2203.78" rx="9.183" ry="5.542" style="fill:white;"/>
                </g>
            </g>
        </g>
    </g>
    <defs>
        <radialGradient id="_Radial1" cx="0" cy="0" r="1" gradientUnits="userSpaceOnUse" gradientTransform="matrix(345.206,0,-3.44735e-15,173.353,1843.73,1404.5)"><stop offset="0" style="stop-color:rgb(1,1,1);stop-opacity:1"/><stop offset="1" style="stop-color:rgb(109,36,0);stop-opacity:1"/></radialGradient>
        <linearGradient id="_Linear2" x1="0" y1="0" x2="1" y2="0" gradientUnits="userSpaceOnUse" gradientTransform="matrix(568.668,-1276.13,1276.13,568.668,1656.35,937.189)"><stop offset="0" style="stop-color:rgb(19,78,72);stop-opacity:1"/><stop offset="1" style="stop-color:rgb(14,147,132);stop-opacity:1"/></linearGradient>
    </defs>
</svg>
