<?xml version="1.0" encoding="UTF-8" standalone="no"?>
<!DOCTYPE svg PUBLIC "-//W3C//DTD SVG 1.1//EN" "http://www.w3.org/Graphics/SVG/1.1/DTD/svg11.dtd">
<svg width="100%" height="100%" viewBox="0 0 163 173" version="1.1" xmlns="http://www.w3.org/2000/svg" xmlns:xlink="http://www.w3.org/1999/xlink" xml:space="preserve" xmlns:serif="http://www.serif.com/" style="fill-rule:evenodd;clip-rule:evenodd;stroke-linejoin:round;stroke-miterlimit:2;">
    <g transform="matrix(2.05269,0,0,1.46346,-3972.61,753.619)">
        <g>
            <g>
                <g transform="matrix(0.3747,0.133909,-0.100451,0.552992,288.795,-1371.48)">
                    <circle cx="4644.41" cy="533.653" r="100.685" style="fill:rgb(36,108,96);"/>
                </g>
                <g id="bean" transform="matrix(0.521381,0,2.70431e-17,0.772286,479.486,-114.927)">
                    <g transform="matrix(1,0,0,1,2466.89,-813.781)">
                        <path d="M401.286,299.988C398.263,303.507 395.686,307.215 392.43,310.176C377.627,323.636 371.844,340.297 373.394,360.049C373.944,367.067 373.943,374.305 372.858,381.234C370.909,393.685 363.264,402.878 353.2,409.891C351.268,411.237 347.336,411.263 345.032,410.267C333.424,405.241 326.124,394.976 325.511,382.944C323.743,348.327 338.986,321.344 367.307,301.596C377.919,294.196 390.357,294.119 401.286,299.988Z" style="fill:white;fill-rule:nonzero;"/>
                    </g>
                    <g transform="matrix(1,0,0,1,2471.66,-806.622)">
                        <path d="M359.273,415.436C363.95,411.39 367.238,408.709 370.344,405.83C382.063,394.971 386.698,381.569 383.54,365.931C378.293,339.947 391.22,321.597 408.711,305.243C410.013,304.027 414.533,304.512 416.332,305.852C427.469,314.148 431.188,326.358 430.888,339.372C430.197,369.22 417.428,392.99 392.407,409.631C383.278,415.702 373.064,418.266 359.273,415.436Z" style="fill:white;fill-rule:nonzero;"/>
                    </g>
                </g>
            </g>
        </g>
    </g>
</svg>
